<?xml version="1.0" standalone="no"?>
<!DOCTYPE svg PUBLIC "-//W3C//DTD SVG 20010904//EN"
 "http://www.w3.org/TR/2001/REC-SVG-20010904/DTD/svg10.dtd">
<svg version="1.0" xmlns="http://www.w3.org/2000/svg"
 width="694.000000pt" height="328.000000pt" viewBox="0 0 694.000000 328.000000"
 preserveAspectRatio="xMidYMid meet">

<g transform="translate(0.000000,328.000000) scale(0.100000,-0.100000)"
fill="white" stroke="none">
<path d="M3001 3221 c-47 -44 -41 -68 31 -129 62 -52 63 -52 71 -28 4 13 23
32 42 42 19 10 35 21 35 24 0 13 -117 120 -132 120 -9 0 -30 -13 -47 -29z"/>
<path d="M3165 3040 c-4 -6 35 -55 87 -108 118 -123 208 -243 288 -383 71
-124 167 -347 207 -481 15 -50 32 -91 38 -93 27 -7 115 -21 115 -19 0 2 -16
47 -35 101 -132 363 -386 760 -603 938 -66 55 -85 64 -97 45z"/>
<path d="M1114 2488 c7 -74 48 -287 52 -273 2 6 7 57 13 114 5 57 12 105 15
108 8 9 411 -308 410 -323 -3 -28 -99 -164 -116 -164 -9 0 -73 17 -142 39 -69
21 -126 37 -126 36 0 -2 44 -28 98 -58 53 -31 124 -71 156 -91 33 -20 63 -36
67 -36 4 0 47 47 95 105 l89 104 96 1 c53 0 130 3 172 6 l76 7 52 -167 c35
-109 58 -166 67 -166 26 0 72 -57 72 -90 l0 -31 -35 27 c-39 30 -120 44 -150
26 -17 -9 -16 -10 6 -17 37 -11 68 -45 75 -82 8 -45 -1 -52 -31 -23 -19 18
-39 25 -83 27 -62 4 -99 -10 -72 -27 8 -5 21 -13 28 -18 14 -10 43 -83 36 -93
-2 -4 -21 2 -41 12 -41 21 -128 25 -153 8 -11 -7 -12 -12 -3 -15 32 -14 97
-69 134 -116 95 -120 134 -255 126 -437 -3 -62 -10 -118 -16 -124 -8 -8 -11 5
-11 46 0 220 -133 486 -281 563 -33 17 -33 17 12 -34 106 -117 162 -310 144
-496 -7 -79 -25 -105 -25 -37 0 63 -49 240 -90 327 -47 97 -115 176 -181 210
-27 13 -51 24 -53 24 -3 0 14 -20 37 -44 95 -98 147 -257 147 -450 -1 -121
-11 -138 -25 -41 -18 129 -89 311 -152 391 -63 79 -164 119 -242 95 -224 -67
-332 -487 -216 -837 51 -151 147 -288 230 -325 l40 -19 -135 -1 c-74 -1 -139
-1 -143 0 -12 2 -62 -26 -75 -42 -11 -13 43 -15 410 -21 515 -7 5419 -28 5424
-23 2 2 -53 43 -123 92 l-127 89 -200 -3 -201 -2 45 29 c58 37 150 136 188
204 56 98 84 201 90 329 9 228 -55 412 -197 562 -30 31 -57 57 -62 57 -4 0 13
-30 37 -67 67 -103 114 -243 113 -338 l0 -50 -20 74 c-25 96 -86 221 -144 294
-41 51 -155 147 -175 147 -4 0 20 -28 54 -63 109 -111 177 -288 175 -451 -1
-45 -4 -70 -6 -56 -37 229 -115 380 -247 477 -210 155 -445 135 -635 -54 -61
-61 -63 -64 -46 -83 10 -11 15 -26 12 -35 -8 -20 -67 -55 -94 -55 -22 0 -22 0
-4 33 10 17 24 49 31 71 12 36 11 40 -13 64 l-26 26 -9 -25 c-12 -30 -49 -65
-84 -78 -34 -13 -36 -1 -8 39 18 26 50 102 50 119 0 3 -9 16 -18 29 l-18 24
-26 -39 c-22 -33 -118 -102 -107 -77 2 5 15 31 28 59 51 108 35 172 -42 162
-21 -3 -56 -17 -77 -31 l-38 -25 -23 26 c-22 23 -76 53 -97 53 -5 0 -28 -14
-51 -31 l-43 -30 33 -18 c48 -26 71 -62 77 -120 l4 -50 -50 49 c-33 32 -63 51
-86 55 -33 7 -34 8 -23 32 13 30 8 34 -133 122 -260 162 -520 263 -815 316
-123 23 -386 30 -524 16 -103 -11 -287 -43 -296 -52 -2 -2 114 -4 258 -5 286
0 394 -12 535 -60 123 -41 120 -45 -33 -38 -340 15 -810 -48 -1075 -146 -47
-17 -94 -34 -104 -37 -14 -5 -6 12 29 55 49 63 116 125 190 176 l40 28 -76 -7
-76 -6 -41 123 c-22 67 -39 125 -36 127 2 3 96 7 208 9 l203 4 76 -51 c42 -28
80 -51 84 -51 5 0 48 40 97 89 66 66 86 92 80 104 -5 8 -72 83 -148 166 l-139
151 -56 0 c-31 0 -184 4 -341 10 -157 5 -508 16 -780 25 -272 8 -549 17 -614
21 l-119 6 7 -64z m1308 -219 c441 -9 460 -11 539 -34 45 -14 85 -27 87 -30 3
-3 -37 -5 -89 -5 -52 0 -350 -7 -662 -16 l-568 -16 -75 57 c-41 32 -74 59 -74
62 0 3 87 2 193 -1 105 -4 398 -11 649 -17z m37 -331 c24 -73 45 -138 48 -143
3 -9 -128 -51 -131 -43 -1 2 -24 71 -52 155 -56 171 -58 160 36 162 l56 1 43
-132z m1704 -309 c117 -24 170 -51 245 -125 134 -133 196 -362 162 -599 -11
-76 -43 -211 -52 -221 -2 -1 -1 66 0 149 6 235 -35 419 -123 551 -50 75 -59
78 -29 10 78 -176 92 -473 31 -665 l-22 -71 -1 208 c0 183 -3 219 -22 289 -27
97 -89 227 -131 275 l-30 35 29 -71 c73 -176 95 -407 56 -588 -17 -79 -45
-160 -52 -153 -2 2 1 52 7 112 18 184 -9 371 -74 505 -41 85 -145 191 -222
226 -238 109 -501 -3 -640 -273 -36 -70 -33 -22 5 75 61 158 184 278 329 322
138 42 356 46 534 9z m-1874 -281 c1 -16 -9 -18 -81 -18 l-82 0 64 65 65 65
17 -47 c9 -27 17 -56 17 -65z m1566 38 c101 -47 193 -174 230 -316 23 -85 23
-244 1 -329 -70 -271 -277 -411 -469 -318 -145 72 -240 262 -240 482 0 165 50
307 144 405 94 98 224 128 334 76z m870 -38 c19 -17 27 -36 32 -75 3 -29 4
-53 1 -53 -3 0 -25 19 -49 43 -24 23 -55 50 -69 60 -24 16 -25 17 -6 32 28 21
61 19 91 -7z m1175 -29 c120 -30 245 -172 285 -325 20 -76 20 -223 0 -298 -37
-140 -147 -273 -262 -316 -82 -31 -196 -26 -273 12 -51 25 -120 77 -120 90 0
3 62 8 138 11 149 6 187 15 256 64 76 54 110 112 130 221 l6 32 -671 0 c-634
0 -670 1 -666 18 3 9 8 33 11 53 l6 36 188 6 c103 4 264 7 357 7 94 0 221 3
283 7 95 5 112 9 112 23 0 9 14 37 30 64 30 47 90 85 135 86 73 0 164 -63 204
-143 l21 -42 -6 45 c-18 126 -88 224 -177 249 -102 29 -217 -8 -297 -95 l-43
-47 -34 37 -34 36 27 35 c93 122 241 172 394 134z m-808 -152 l108 -122 -111
-3 c-60 -1 -157 -1 -214 0 l-103 3 101 122 c56 67 104 122 107 122 3 0 53 -55
112 -122z m-2089 16 c128 -4 177 -9 177 -18 0 -9 -44 -14 -152 -19 -247 -12
-674 -44 -666 -51 2 -2 184 -11 406 -21 l402 -18 0 -49 0 -49 -382 6 c-211 4
-420 9 -464 12 l-82 6 -6 50 c-4 28 -16 74 -27 102 -10 28 -19 55 -19 60 0 9
430 3 813 -11z m-1546 -29 c126 -60 196 -345 141 -574 -18 -76 -66 -166 -108
-204 -33 -29 -48 -36 -83 -36 -120 0 -204 148 -214 378 -8 171 24 299 94 382
58 67 108 83 170 54z m4296 -413 c51 -7 50 -7 -38 -14 -96 -7 -650 -26 -878
-30 -86 -1 -137 2 -137 8 0 6 3 21 7 34 l6 24 494 -8 c272 -4 517 -10 546 -14z
m-363 -326 c46 -71 106 -130 175 -174 l46 -29 -48 -5 c-26 -2 -145 -5 -263 -6
-118 -1 -386 -6 -595 -10 -209 -4 -382 -7 -383 -5 -2 1 15 12 39 25 59 30 154
121 201 194 l39 60 157 5 c86 3 254 7 373 8 l217 2 42 -65z m-2076 -3 c49 -81
151 -176 228 -212 l63 -30 -50 0 c-80 0 -1036 -19 -1310 -25 l-250 -6 39 32
c53 45 128 162 150 237 l19 62 538 0 538 0 35 -58z"/>
<path d="M3653 1305 c-73 -32 -144 -134 -172 -250 -29 -116 -7 -302 45 -385 8
-14 13 -17 10 -8 -47 154 -19 353 63 457 43 54 56 52 26 -4 -74 -140 -52 -375
45 -478 31 -34 44 -40 86 -44 61 -6 97 10 144 64 109 123 130 318 55 490 -28
61 -93 135 -139 157 -41 19 -120 20 -163 1z"/>
<path d="M1354 1035 c-31 -21 -63 -104 -76 -195 -15 -100 0 -218 37 -293 22
-46 24 -48 17 -17 -13 64 -8 282 8 325 l15 40 6 -110 c4 -60 14 -133 23 -161
15 -48 57 -104 78 -104 5 0 19 21 31 48 19 41 22 64 22 192 0 130 -2 150 -23
195 -41 90 -87 116 -138 80z"/>
<path d="M4540 2085 c460 -63 856 -225 1085 -446 l50 -48 45 10 c46 11 230 7
265 -6 69 -24 -192 149 -320 213 -337 169 -748 277 -1085 287 l-145 4 105 -14z"/>
<path d="M455 2060 c-122 -16 -356 -52 -353 -56 2 -1 95 -8 208 -14 292 -15
577 -44 747 -76 l32 -6 -19 68 c-11 37 -24 72 -30 78 -14 14 -487 18 -585 6z"/>
<path d="M4585 1865 c6 -2 63 -16 128 -30 283 -63 497 -157 670 -294 l73 -58
34 24 c19 14 50 31 68 39 l34 15 -44 33 c-194 147 -614 278 -888 275 -47 0
-80 -2 -75 -4z"/>
<path d="M590 1750 c-47 -6 -112 -13 -145 -18 l-60 -8 100 -8 c278 -20 481
-58 600 -111 l58 -25 -40 -31 -40 -31 -234 -2 c-246 -3 -359 -15 -528 -59
l-86 -22 230 -7 c199 -6 491 -30 502 -42 2 -2 -4 -21 -13 -42 -10 -22 -20 -47
-24 -58 -5 -16 -18 -19 -112 -22 -90 -3 -302 -35 -315 -47 -2 -2 34 -7 79 -11
46 -3 134 -14 196 -23 125 -18 121 -14 106 -104 -6 -35 -8 -37 -58 -42 -46 -5
-221 -56 -214 -63 2 -1 61 -7 132 -13 76 -6 132 -15 136 -22 4 -6 10 -39 14
-73 8 -81 38 -189 77 -276 18 -39 33 -69 35 -67 2 1 -1 20 -6 42 -5 22 -14 93
-20 157 -29 306 59 564 236 698 96 72 221 119 319 120 l50 1 -30 25 c-89 75
-247 141 -402 169 -105 19 -421 28 -543 15z"/>
</g>
</svg>
